<svg width="30" height="25" xmlns="http://www.w3.org/2000/svg">
 <g id="Layer_1">
  <title>Layer 1</title>
  <path fill="none" stroke="#000" d="m-13.12064,10.94985l0.38196,0l0.11803,-2.0769l0.11803,2.0769l0.38196,0l-0.30901,1.28358l0.11803,2.0769l-0.30901,-1.28362l-0.30901,1.28362l0.11803,-2.0769l-0.30901,-1.28358z" id="svg_1"/>
  <path fill="none" stroke="#000" d="m3.469,12.41767c0.02143,-1.5865 -0.01371,-3.17513 0.17625,-4.75884c4.66775,0.52097 9.28044,1.37341 13.86953,2.14c0.24636,-0.77793 0.13041,-1.42323 0.34446,-2.14247c2.94822,1.5135 5.86986,3.04854 8.67176,4.65669c-2.68815,1.82419 -5.77155,3.40838 -8.79863,5.0306c-0.09802,-0.75544 -0.19606,-1.51088 -0.29409,-2.26633c-4.46147,0.73086 -9.17961,1.48649 -13.66993,2.15464c-0.30536,-1.54172 -0.29639,-3.22069 -0.29935,-4.81428l0,-0.00001z" id="svg_2"/>
 </g>

</svg>